# xmcd CD database file
#
# Track frame offsets:
#	150
#	13645
#	32841
#	53453
#	76352
#	105871
#	120065
#	145518
#	174173
#	196264
#	226051
#	259447
#	293995
#
# Disc length: 4304 seconds
#
# Revision: 0
# Processed by: cddbd v1.5.2PL0 Copyright (c) Steve Scherf et al.
# Submitted via: CDex 1.51
#
DISCID=9510ce0d
DTITLE=Ruben Blades - Exitos
DYEAR=2001
DGENRE=Salsa
TTITLE0=Amor y Control
TTITLE1=Cameleon
TTITLE2=Creo en ti
TTITLE3=Decisiones
TTITLE4=Desapariciones
TTITLE5=La marea
TTITLE6=Fue Varon
TTITLE7=Juan Pachanga
TTITLE8=Eres mi corazon
TTITLE9=Plastico
TTITLE10=Pedro Navaja
TTITLE11=Sorpresas (Pedro Navaja 2)
TTITLE12=Te estan buscando
EXTD=YEAR: 2001
EXTT0=
EXTT1=
EXTT2=
EXTT3=
EXTT4=
EXTT5=
EXTT6=
EXTT7=
EXTT8=
EXTT9=
EXTT10=
EXTT11=
EXTT12=
PLAYORDER=
